<svg width="64" height="64" viewBox="0 0 64 64" fill="none" xmlns="http://www.w3.org/2000/svg">
<rect width="64" height="64" rx="32" fill="#FFAE34"/>
<rect width="64" height="64" rx="32" fill="url(#paint0_linear_45_2)" fill-opacity="0.15"/>
<path d="M41.497 30.9058C43.5399 29.8521 44.8181 27.9964 44.5195 24.905C44.1174 20.6802 40.5145 19.2636 35.9662 18.8601L35.9653 13H32.4413L32.4403 18.706C31.5132 18.706 30.568 18.7244 29.6271 18.7436L29.6263 13.0008L26.1055 13.0004L26.1048 18.8591C25.3418 18.8749 24.5924 18.8899 23.8607 18.8899V18.8726L19 18.8706L19.0007 22.6797C19.0007 22.6797 21.6031 22.6301 21.5602 22.6782C22.9871 22.6792 23.453 23.5181 23.587 24.2422L23.588 30.9181V40.2956C23.5252 40.75 23.2609 41.4761 22.2632 41.4774C22.3086 41.5179 19.6997 41.477 19.6997 41.477L19.0007 45.7364H23.5859C24.4402 45.7374 25.2797 45.7509 26.1033 45.7576L26.1064 51.684L29.6263 51.685L29.6253 45.8207C30.5937 45.8407 31.5285 45.8493 32.4416 45.8481L32.4406 51.685H35.9645L35.9664 45.7684C41.8899 45.424 46.0368 43.9132 46.5524 38.2812C46.968 33.7469 44.8601 31.7229 41.497 30.9058ZM29.7113 22.9368C31.6988 22.9368 37.9494 22.296 37.9503 26.4994C37.9494 30.5293 31.7008 30.0586 29.7113 30.0586V22.9368ZM29.7098 41.5063L29.7113 33.6539C32.0992 33.6532 39.589 32.9582 39.59 37.5783C39.591 42.009 32.0992 41.5046 29.7098 41.5063Z" fill="#333333"/>
<defs>
<linearGradient id="paint0_linear_45_2" x1="64" y1="-4.72934e-06" x2="-12.5264" y2="30.8632" gradientUnits="userSpaceOnUse">
<stop stop-color="white"/>
<stop offset="1" stop-color="white" stop-opacity="0"/>
</linearGradient>
</defs>
</svg>
