<svg width="64" height="64" viewBox="0 0 64 64" fill="none" xmlns="http://www.w3.org/2000/svg">
<rect width="64" height="64" rx="32" fill="#8B58F9"/>
<rect width="64" height="64" rx="32" fill="url(#paint0_linear_45_4)" fill-opacity="0.15"/>
<path d="M45.3113 18.6979C43.5678 16.9552 41.4272 15.9972 39.284 16C37.2396 16.0029 35.2983 16.8586 33.6985 18.4787L27.719 24.4935C26.0468 26.1738 25.1993 28.1915 25.2685 30.3343C25.3409 32.3969 26.3003 34.4512 27.9689 36.1195C28.9055 37.0554 30.423 37.0554 31.3589 36.1195C32.2955 35.1825 32.2955 33.664 31.3589 32.7288C30.5513 31.9209 30.0899 31.0117 30.0607 30.1728C30.035 29.3788 30.3909 28.6058 31.1186 27.8742L37.0984 21.8597C37.1023 21.8561 37.1059 21.8526 37.1091 21.8487C37.8069 21.1509 38.5417 20.7965 39.2904 20.7951C40.1515 20.794 41.0852 21.2532 41.9217 22.09C42.8715 23.0381 44.1654 24.9299 42.1634 26.9415L39.2248 29.8897C39.1079 30.0073 39.0715 30.223 39.1392 30.3742C39.6181 31.4513 39.8894 32.5819 39.9268 33.7189C39.9429 34.1888 39.9201 34.6527 39.8605 35.1094C39.775 35.7669 40.0006 35.903 40.4681 35.4338L45.5605 30.3246C48.9038 26.9653 48.8011 22.1835 45.3113 18.6979Z" fill="white"/>
<path d="M36.0252 27.9669C35.0883 27.0328 33.5726 27.0345 32.6374 27.9694C31.7001 28.9099 31.7022 30.4277 32.6399 31.3629C33.4485 32.1683 33.9081 33.0757 33.9366 33.9211C33.9637 34.7108 33.6086 35.4831 32.8802 36.2154L26.9018 42.2274C26.8982 42.232 26.8947 42.2348 26.8911 42.2384C26.1923 42.9372 25.4575 43.292 24.7077 43.2938C23.8459 43.2948 22.9107 42.836 22.0768 42.0024C21.1273 41.0526 19.8341 39.1576 21.8332 37.1474L24.7747 34.1985C24.8916 34.0815 24.9276 33.8651 24.8603 33.715C24.3821 32.6393 24.1104 31.5112 24.0709 30.3771C24.0555 29.9054 24.0791 29.4394 24.1393 28.9812C24.226 28.3249 23.9996 28.1872 23.5321 28.6557L18.4365 33.7628C15.0975 37.1192 15.1995 41.9011 18.6861 45.3927C20.431 47.1351 22.572 48.0913 24.7166 48.0885C26.7524 48.0849 28.6763 47.2342 30.2821 45.6291C30.2889 45.622 30.2957 45.6152 30.3025 45.6084L36.2816 39.595C37.9566 37.9093 38.8027 35.8895 38.7285 33.7589C38.6608 31.6934 37.6996 29.6366 36.0252 27.9669Z" fill="white"/>
<defs>
<linearGradient id="paint0_linear_45_4" x1="63.2461" y1="1.46059" x2="-12.8297" y2="31.4021" gradientUnits="userSpaceOnUse">
<stop/>
<stop offset="1" stop-opacity="0"/>
</linearGradient>
</defs>
</svg>
