<svg width="64" height="64" viewBox="0 0 64 64" fill="none" xmlns="http://www.w3.org/2000/svg">
<rect width="64" height="64" rx="32" fill="#222222"/>
<rect width="64" height="64" rx="32" fill="url(#paint0_linear_45_3)" fill-opacity="0.15"/>
<path d="M19.5852 21.1465L17.6684 20.3948C16.6913 20.019 16.2403 18.929 16.6161 17.9519C16.9919 16.9747 18.0818 16.5237 19.059 16.8995L20.0362 17.2754L19.7731 16.4109C19.4724 15.4338 20.0362 14.3814 21.0509 14.0808C22.0281 13.7801 23.0805 14.3438 23.3811 15.3586L24.0576 17.6512C26.463 16.4485 29.169 15.7344 32.0253 15.7344C41.4212 15.7344 49.0507 23.3639 49.0507 32.7598C49.0507 42.1557 41.4212 49.7851 32.0253 49.7851C22.6295 49.7851 15 42.1557 15 32.7598C15 28.2873 16.7664 24.1907 19.5852 21.1465ZM44.0145 33.9249C44.0521 33.549 44.0897 33.1732 44.0897 32.7598C44.0897 29.8658 43.0749 27.235 41.3836 25.1679H22.7422C21.0509 27.235 20.0362 29.9034 20.0362 32.7598C20.0362 33.1356 20.0738 33.549 20.1114 33.9249H44.0145Z" fill="white"/>
<path d="M36.9488 32.1209C35.5166 32.1209 34.3555 30.9598 34.3555 29.5276C34.3555 28.0954 35.5166 26.9343 36.9488 26.9343C38.381 26.9343 39.5421 28.0954 39.5421 29.5276C39.5421 30.9598 38.381 32.1209 36.9488 32.1209Z" fill="white"/>
<path d="M27.1019 32.1209C25.6697 32.1209 24.5087 30.9598 24.5087 29.5276C24.5087 28.0954 25.6697 26.9343 27.1019 26.9343C28.5341 26.9343 29.6952 28.0954 29.6952 29.5276C29.6952 30.9598 28.5341 32.1209 27.1019 32.1209Z" fill="white"/>
<defs>
<linearGradient id="paint0_linear_45_3" x1="64" y1="-5.76943e-06" x2="-13.2374" y2="30.7422" gradientUnits="userSpaceOnUse">
<stop stop-color="white"/>
<stop offset="1" stop-color="white" stop-opacity="0"/>
</linearGradient>
</defs>
</svg>
