<svg width="64" height="64" viewBox="0 0 64 64" fill="none" xmlns="http://www.w3.org/2000/svg">
<rect width="64" height="64" rx="32" fill="#F33355"/>
<rect width="64" height="64" rx="32" fill="url(#paint0_linear_45_5)" fill-opacity="0.16"/>
<path fill-rule="evenodd" clip-rule="evenodd" d="M32 49C41.3888 49 49 41.3888 49 32C49 30.0145 48.6596 28.1084 48.034 26.3371C49.9119 23.4372 51 19.9937 51 16.3C51 15.6315 50.0585 15.5682 49.8231 16.1938C48.9585 18.4917 47.6482 20.5767 45.9956 22.3473C42.9283 17.9084 37.8038 15 32 15C26.1962 15 21.0717 17.9084 18.0044 22.3473C16.3518 20.5767 15.0415 18.4917 14.1769 16.1938C13.9415 15.5682 13 15.6315 13 16.3C13 19.9937 14.0881 23.4372 15.966 26.3371C15.3404 28.1084 15 30.0145 15 32C15 41.3888 22.6112 49 32 49ZM26.5138 28.1501C26.9809 27.9801 27.502 28.1791 27.7369 28.6172L30.3917 33.5671C30.8293 34.3831 30.0187 35.3043 29.1537 34.974L21.2205 31.9444C20.3556 31.6141 20.3653 30.3871 21.2354 30.0705L26.5138 28.1501ZM38.2875 28.15C37.8203 27.98 37.2993 28.179 37.0643 28.6171L34.4095 33.567C33.9718 34.3829 34.7825 35.3041 35.6475 34.9738L43.5807 31.9444C44.4456 31.6141 44.4359 30.3871 43.5658 30.0705L38.2875 28.15Z" fill="white"/>
<defs>
<linearGradient id="paint0_linear_45_5" x1="64" y1="-5.76943e-06" x2="-13.2374" y2="30.7422" gradientUnits="userSpaceOnUse">
<stop/>
<stop offset="1" stop-opacity="0"/>
</linearGradient>
</defs>
</svg>
