<svg width="44" height="44" viewBox="0 0 44 44" fill="none" xmlns="http://www.w3.org/2000/svg">
<g opacity="0.5">
<path d="M29.8487 26.5009C30.5267 27.1657 30.5267 28.2441 29.8487 28.9097C29.1698 29.5753 28.0693 29.5753 27.3913 28.9097C24.4169 25.9941 19.5778 25.9941 16.6038 28.9097C15.9249 29.5753 14.824 29.5753 14.146 28.9097C13.8067 28.5771 13.6378 28.1423 13.6378 27.7049C13.6378 27.2692 13.8072 26.8331 14.146 26.5009C18.4756 22.2567 25.5191 22.2567 29.8487 26.5009Z" fill="white"/>
<path d="M35.8186 21.073C36.4967 21.7381 36.4967 22.817 35.8186 23.4826C35.1397 24.1482 34.0397 24.1482 33.3612 23.4826C27.0956 17.339 16.9004 17.339 10.6348 23.4826C9.9563 24.1482 8.85542 24.1482 8.17782 23.4826C7.83858 23.15 7.6683 22.7135 7.6683 22.2778C7.6683 21.8412 7.83858 21.406 8.17782 21.073C11.869 17.4538 16.7772 15.4608 21.9978 15.4608C27.2184 15.4608 32.1266 17.4538 35.8186 21.073Z" fill="white"/>
<path d="M41.2866 15.0204C41.965 15.6856 41.965 16.7644 41.2866 17.4296C40.6081 18.0948 39.5081 18.0948 38.8296 17.4296C34.3332 13.0218 28.3554 10.5945 21.9974 10.5945C15.6394 10.5945 9.66199 13.0218 5.16651 17.4296C4.48715 18.0948 3.38715 18.0948 2.70911 17.4296C2.36987 17.097 2.20047 16.6609 2.20047 16.2248C2.20047 15.7891 2.37031 15.353 2.70911 15.0204C7.86107 9.96901 14.7119 7.18752 21.9974 7.18752C29.2842 7.18752 36.1346 9.96901 41.2866 15.0204Z" fill="white"/>
</g>
</svg>
